<svg width="1155" height="1458" viewBox="0 0 1155 1458" fill="none" xmlns="http://www.w3.org/2000/svg">
<path fill-rule="evenodd" clip-rule="evenodd" d="M538.666 7.59658C648.754 30.3623 711.701 160.957 810.228 222.28C920.857 291.135 1114.75 248.714 1150.36 388.316C1188.21 536.701 982.722 630.441 952.809 781.243C926.984 911.432 1049.51 1053.02 995.148 1170.81C942.051 1285.86 801.864 1289.75 696.694 1336.2C581.832 1386.94 472.339 1473.54 350.402 1455.59C221.042 1436.56 57.8282 1379.82 17.1039 1236.19C-27.6588 1078.32 161.085 941.855 157.627 775.724C154.842 641.9 -7.42383 560.693 0.264817 427.126C8.12866 290.516 98.7783 171.794 196.788 95.4233C295.668 18.3747 421.381 -16.6574 538.666 7.59658Z" fill="#008D39"/>
</svg>
