<svg width="1265" height="784" viewBox="0 0 1265 784" fill="none" xmlns="http://www.w3.org/2000/svg">
<path fill-rule="evenodd" clip-rule="evenodd" d="M529.806 0.938646C622.635 -10.1166 668.804 79.6793 755.813 102.378C848.431 126.54 969.064 98.698 1048.82 136.337C1127.66 173.549 1142.16 242.113 1174.23 299.848C1208.87 362.208 1306.45 435.891 1245.3 490.068C1171.65 555.329 998.089 528.969 879.576 560.927C818.643 577.358 767.197 603.123 719.805 631.773C648.217 675.051 623.457 749.934 529.806 772.378C441.15 793.625 316.562 786.638 251.64 743.972C178.796 696.101 246.712 610.717 196.103 553.075C157.632 509.258 32.4464 510.244 5.26331 463.358C-21.1305 417.834 60.1417 373.061 63.7555 324.798C68.3201 263.838 -40.8417 188.722 29.0808 145.273C103.408 99.0874 246.697 179.213 342.48 151.603C436.894 124.389 427.386 13.1362 529.806 0.938646Z" fill="#43AC3A"/>
</svg>
